<?xml version="1.0" standalone="yes"?>

<svg version="1.1" viewBox="0.0 0.0 960.0 720.0" fill="none" stroke="none" stroke-linecap="square" stroke-miterlimit="10" xmlns="http://www.w3.org/2000/svg" xmlns:xlink="http://www.w3.org/1999/xlink"><clipPath id="p.0"><path d="m0 0l960.0 0l0 720.0l-960.0 0l0 -720.0z" clip-rule="nonzero"></path></clipPath><g clip-path="url(#p.0)"><path fill="#000000" fill-opacity="0.0" d="m0 0l960.0 0l0 720.0l-960.0 0z" fill-rule="nonzero"></path><path fill="#cfe2f3" d="m200.16823 119.49606l50.4142 0l0 0c3.3427734 0 6.5486145 1.3279114 8.912323 3.6916046c2.363678 2.3636932 3.6915894 5.5695496 3.6915894 8.912323l0 468.404c0 3.0517578E-4 -2.746582E-4 6.1035156E-4 -6.1035156E-4 6.1035156E-4l-75.62143 -6.1035156E-4l0 0c-3.5095215E-4 0 -6.2561035E-4 -3.0517578E-4 -6.2561035E-4 -6.713867E-4l6.2561035E-4 -468.40332l0 0c0 -6.9609604 5.642975 -12.603928 12.603928 -12.603928z" fill-rule="nonzero"></path><path stroke="#ffffff" stroke-width="8.0" stroke-linejoin="round" stroke-linecap="butt" d="m200.16823 119.49606l50.4142 0l0 0c3.3427734 0 6.5486145 1.3279114 8.912323 3.6916046c2.363678 2.3636932 3.6915894 5.5695496 3.6915894 8.912323l0 468.404c0 3.0517578E-4 -2.746582E-4 6.1035156E-4 -6.1035156E-4 6.1035156E-4l-75.62143 -6.1035156E-4l0 0c-3.5095215E-4 0 -6.2561035E-4 -3.0517578E-4 -6.2561035E-4 -6.713867E-4l6.2561035E-4 -468.40332l0 0c0 -6.9609604 5.642975 -12.603928 12.603928 -12.603928z" fill-rule="nonzero"></path><path fill="#7f6000" d="m249.58267 119.49606l316.126 0l0 481.0079l-316.126 0z" fill-rule="nonzero"></path><path stroke="#ffffff" stroke-width="8.0" stroke-linejoin="round" stroke-linecap="butt" d="m249.58267 119.49606l316.126 0l0 481.0079l-316.126 0z" fill-rule="nonzero"></path><path fill="#000000" fill-opacity="0.0" d="m263.1942 225.37796l282.86615 0l0 127.055115l-282.86615 0z" fill-rule="nonzero"></path><path stroke="#f3f3f3" stroke-width="3.0" stroke-linejoin="round" stroke-linecap="butt" d="m263.1942 225.37796l282.86615 0l0 127.055115l-282.86615 0z" fill-rule="nonzero"></path><path fill="#ffffff" d="m349.8773 266.39484q-1.28125 0 -1.5 -1.359375q-0.28125 -1.71875 -0.5625 -4.84375l-0.53125 -4.84375q-0.15625 -1.078125 -0.53125 -2.109375q-0.53125 -1.40625 -1.15625 -1.40625q-0.578125 0 -2.15625 0.984375q-1.5 0.90625 -1.96875 1.453125q-0.015625 1.46875 0.078125 2.9375l0.46875 4.171875q0.296875 2.46875 0.296875 4.078125q0 0.6875 -0.4375 1.125q-0.421875 0.453125 -1.09375 0.453125q-0.671875 0 -1.109375 -0.453125q-0.421875 -0.4375 -0.421875 -1.125q0 -1.890625 -0.390625 -5.578125q-0.375 -3.703125 -0.375 -5.59375q0 -1.65625 -0.46875 -2.578125q-1.09375 0.5 -2.21875 1.625l-1.84375 2.0625q-0.25 0.375 -0.796875 0.984375q0 0.9375 -0.171875 2.765625q-0.171875 1.828125 -0.171875 2.703125q0 0.46875 0.140625 1.3125q0.15625 0.84375 0.15625 1.21875q0 0.640625 -0.484375 1.078125q-0.46875 0.4375 -1.109375 0.4375q-1.765625 0 -1.765625 -4.015625q0 -0.9375 0.171875 -2.796875q0.171875 -1.859375 0.171875 -2.796875q0 -0.828125 -0.15625 -2.484375q-0.140625 -1.65625 -0.140625 -2.5q0 -3.546875 1.59375 -3.546875q0.609375 0 1.109375 0.53125q0.515625 0.53125 0.515625 1.15625q0 0.296875 -0.078125 0.921875q-0.078125 0.625 -0.078125 0.953125l0.03125 1.640625q0.8125 -1.671875 2.390625 -3.015625q1.578125 -1.359375 2.6875 -1.359375q2.453125 0 3.375 2.4375q0.859375 -1.140625 2.046875 -1.703125q1.1875 -0.578125 2.71875 -0.578125q2.609375 0 3.5625 2.8125q0.1875 0.5625 0.640625 4.390625q0.4375 2.6875 1.125 8.953125q0.046875 0.625 -0.421875 1.0625q-0.46875 0.4375 -1.140625 0.4375zm18.640625 -15.234375l-5.40625 11.6875q-2.0 4.265625 -3.0625 7.140625l-1.03125 3.03125q-0.40625 1.125 -1.40625 1.125q-0.65625 0 -1.140625 -0.4375q-0.46875 -0.421875 -0.46875 -1.0625q0 -1.5625 3.375 -9.046875l-5.59375 -10.765625l-0.703125 -1.140625q-0.421875 -0.71875 -0.421875 -1.203125q0 -0.640625 0.484375 -1.125q0.5 -0.484375 1.109375 -0.484375q0.71875 0 1.109375 0.546875q2.65625 3.6875 5.703125 10.5l2.3125 -5.390625q1.25 -2.796875 2.40625 -4.8125q0.5 -0.875 1.3125 -0.875q0.640625 0 1.125 0.453125q0.5 0.453125 0.5 1.078125q0 0.34375 -0.203125 0.78125zm19.5625 -6.28125q-0.28125 0 -0.96875 -0.109375q-0.671875 -0.125 -1.046875 -0.125q-0.765625 0 -1.796875 0.046875l0.078125 1.859375q0 11.625 -1.546875 16.921875q-1.03125 3.5 -3.609375 3.5q-2.71875 0 -5.390625 -1.96875q-2.953125 -2.1875 -2.953125 -5.015625q0 -1.921875 1.578125 -1.921875q1.578125 0 1.578125 1.890625q0 1.296875 1.84375 2.578125q1.765625 1.21875 3.34375 1.21875q1.28125 0 1.78125 -7.859375q0.234375 -3.71875 0.234375 -9.34375q0 -0.4375 -0.078125 -1.6875l-0.953125 0.015625q-0.609375 0 -1.84375 -0.03125q-1.21875 -0.046875 -1.84375 -0.046875q-0.6875 0 -1.15625 -0.4375q-0.46875 -0.4375 -0.46875 -1.1875q0 -1.609375 2.171875 -1.609375q0.53125 0 1.578125 0.046875q1.046875 0.046875 1.5625 0.046875q0.984375 0 2.9375 -0.109375q1.96875 -0.125 2.953125 -0.125q3.5625 0 3.5625 1.8125q0 0.625 -0.421875 1.109375q-0.453125 0.53125 -1.125 0.53125zm10.609375 21.140625q-2.625 0 -4.515625 -1.9375q-2.109375 -2.15625 -2.21875 -5.796875q-0.09375 -3.53125 1.78125 -6.21875q2.1875 -3.171875 6.09375 -3.171875q3.125 0 4.734375 2.859375q1.28125 2.3125 1.234375 5.5625q-0.046875 3.46875 -1.8125 5.921875q-2.0 2.78125 -5.296875 2.78125zm0.9375 -13.953125q-2.296875 -0.015625 -3.578125 2.1875q-1.015625 1.765625 -1.015625 4.03125q0 2.265625 1.234375 3.53125q1.03125 1.046875 2.421875 1.046875q1.625 0 2.796875 -1.1875q1.328125 -1.3125 1.40625 -3.546875q0.21875 -6.046875 -3.265625 -6.0625zm22.78125 3.90625q0 1.125 0.015625 3.375q0.015625 2.25 0.015625 3.375q0 0.34375 0.046875 1.046875q0.0625 0.703125 0.0625 1.046875q0 0.671875 -0.453125 1.09375q-0.453125 0.4375 -1.109375 0.4375q-1.203125 0 -1.53125 -1.484375q-1.953125 1.015625 -4.5 1.015625q-2.046875 0 -3.390625 -0.90625q-1.484375 -1.0 -1.765625 -2.921875q-0.609375 -4.140625 -0.609375 -7.375q0 -2.140625 0.46875 -4.875q0.21875 -1.359375 1.484375 -1.359375q0.671875 0 1.125 0.4375q0.453125 0.421875 0.453125 1.09375q0 0.71875 -0.234375 2.296875q-0.21875 1.578125 -0.21875 2.40625q0 2.609375 0.171875 4.46875q0.171875 1.859375 0.515625 2.984375q0.515625 0.28125 1.015625 0.4375q0.5 0.140625 0.984375 0.140625q2.09375 0 4.421875 -0.671875l-0.015625 -3.171875l-0.03125 -3.03125q0 -3.375 0.296875 -5.859375q0.171875 -1.4375 1.515625 -1.4375q0.671875 0 1.125 0.4375q0.453125 0.4375 0.421875 1.09375l-0.28125 5.90625zm16.046875 -2.421875q-0.109375 1.953125 -1.5625 1.953125q-1.34375 0 -1.34375 -1.546875q0 -0.296875 -0.046875 -1.09375l-0.046875 -1.3125q-2.46875 0.296875 -3.953125 1.390625q-1.390625 1.015625 -2.3125 3.0625l0.03125 8.5625q0 1.578125 -1.546875 1.578125q-1.375 0 -1.375 -1.578125l0 -10.96875q0 -0.515625 0.03125 -1.546875q0.046875 -1.03125 0.046875 -1.546875q0 -1.578125 1.375 -1.578125q1.53125 0 1.546875 2.59375q3.0 -2.890625 6.65625 -2.890625q1.265625 0 1.890625 0.953125q0.625 0.953125 0.625 2.875q0 0.8125 -0.015625 1.09375zm15.203125 12.65625q-1.34375 0 -1.515625 -1.46875l-0.4375 -3.421875q-0.21875 -1.828125 -0.21875 -3.421875q0 -0.4375 0.046875 -1.484375q0.0625 -1.046875 0.0625 -1.484375q0 -3.375 -1.25 -3.375q-1.75 0 -3.34375 2.078125q-1.4375 1.890625 -2.25 4.78125q-0.03125 0.609375 -0.140625 1.53125q-0.09375 0.78125 -0.09375 1.515625q0 0.46875 0.09375 1.40625q0.09375 0.9375 0.09375 1.40625q0 0.703125 -0.4375 1.140625q-0.421875 0.4375 -1.09375 0.4375q-0.6875 0 -1.109375 -0.4375q-0.421875 -0.4375 -0.421875 -1.140625q0 -0.46875 -0.109375 -1.40625q-0.09375 -0.9375 -0.09375 -1.40625q0 -1.609375 0.21875 -4.453125q0.234375 -2.859375 0.234375 -4.46875q0 -0.5 -0.0625 -1.484375q-0.046875 -0.984375 -0.046875 -1.484375q0 -0.671875 0.4375 -1.09375q0.453125 -0.4375 1.109375 -0.4375q1.4375 0 1.578125 2.03125l0.046875 1.828125q2.625 -3.5 5.390625 -3.5q2.5 0 3.484375 2.203125q0.671875 1.46875 0.734375 4.34375l0 1.578125l-0.015625 1.453125q0 1.296875 0.328125 3.359375q0.34375 2.046875 0.34375 3.328125q0 0.6875 -0.453125 1.109375q-0.4375 0.4375 -1.109375 0.4375zm16.96875 -0.078125q-0.296875 0 -1.078125 -0.6875q-0.703125 -0.640625 -1.046875 -1.140625q-1.5 0.8125 -2.640625 1.21875q-1.140625 0.421875 -1.90625 0.421875q-3.65625 0 -5.328125 -2.0625q-1.578125 -1.9375 -1.578125 -5.9375q0 -3.78125 2.59375 -6.46875q2.609375 -2.6875 6.21875 -2.6875q1.359375 0 3.046875 0.703125q2.125 0.875 2.125 2.109375q0 0.421875 -0.3125 0.75q-0.15625 0.59375 -0.25 1.953125q-0.078125 1.359375 -0.09375 3.484375q-0.015625 1.9375 0.265625 3.0625q0.15625 0.6875 0.984375 2.75q0.109375 0.28125 0.359375 0.828125l0.09375 0.265625q0 0.625 -0.4375 1.03125q-0.4375 0.40625 -1.015625 0.40625zm-3.25 -10.859375q0 -0.671875 0.078125 -1.453125q0.09375 -0.796875 0.265625 -1.6875q-0.578125 -0.296875 -1.0 -0.4375q-0.40625 -0.140625 -0.65625 -0.140625q-2.421875 0 -4.1875 1.984375q-1.75 1.96875 -1.75 4.546875q0 2.5625 0.90625 3.84375q0.90625 1.28125 2.71875 1.28125q1.5 0 2.546875 -0.546875q0.5625 -0.296875 1.578125 -1.1875q-0.5 -4.140625 -0.5 -6.203125zm11.390625 -2.453125l-0.234375 7.765625q0 1.234375 -0.125 3.625q-0.15625 1.5625 -1.53125 1.5625q-1.53125 0 -1.53125 -1.59375q0 -1.890625 0.171875 -5.671875q0.171875 -3.796875 0.171875 -5.6875q0 -2.46875 0.078125 -5.640625q0.078125 -3.1875 0.078125 -5.65625q0 -1.5625 1.53125 -1.5625q1.546875 0 1.546875 1.5625q0 2.46875 -0.078125 5.65625q-0.078125 3.171875 -0.078125 5.640625z" fill-rule="nonzero"></path><path fill="#ffffff" d="m313.58823 309.9417q-0.6875 0 -3.703125 -2.671875l-3.734375 -3.421875q-2.640625 1.0625 -5.234375 1.0625q-4.703125 0 -8.28125 -3.75q-3.5625 -3.75 -3.5625 -8.484375q0 -5.578125 4.15625 -9.46875q4.0625 -3.78125 9.609375 -3.78125q5.84375 0 8.859375 4.375q2.5625 3.75 2.5625 9.703125q0 5.171875 -5.0625 8.703125l3.40625 3.140625l2.015625 1.71875q0.59375 0.5625 0.59375 1.21875q0 0.640625 -0.484375 1.140625q-0.46875 0.515625 -1.140625 0.515625zm-10.75 -27.28125q-4.28125 0 -7.375 2.859375q-3.1875 2.9375 -3.1875 7.15625q0 3.421875 2.640625 6.1875q2.65625 2.8125 6.0 2.8125q1.078125 0 2.21875 -0.265625q-3.015625 -2.625 -3.015625 -4.140625q0 -0.6875 0.5 -1.140625q0.515625 -0.453125 1.140625 -0.453125q0.75 0 1.328125 0.75q1.546875 2.015625 3.5 3.609375q4.453125 -2.59375 4.453125 -6.53125q0 -4.640625 -1.890625 -7.53125q-2.15625 -3.3125 -6.3125 -3.3125zm28.0 11.3125q0 1.125 0.015625 3.375q0.015625 2.25 0.015625 3.375q0 0.34375 0.046875 1.046875q0.0625 0.703125 0.0625 1.046875q0 0.671875 -0.453125 1.09375q-0.453125 0.4375 -1.109375 0.4375q-1.203125 0 -1.53125 -1.484375q-1.953125 1.015625 -4.5 1.015625q-2.046875 0 -3.390625 -0.90625q-1.484375 -1.0 -1.765625 -2.921875q-0.609375 -4.140625 -0.609375 -7.375q0 -2.140625 0.46875 -4.875q0.21875 -1.359375 1.484375 -1.359375q0.671875 0 1.125 0.4375q0.453125 0.421875 0.453125 1.09375q0 0.71875 -0.234375 2.296875q-0.21875 1.578125 -0.21875 2.40625q0 2.609375 0.171875 4.46875q0.171875 1.859375 0.515625 2.984375q0.515625 0.28125 1.015625 0.4375q0.5 0.140625 0.984375 0.140625q2.09375 0 4.421875 -0.671875l-0.015625 -3.171875l-0.03125 -3.03125q0 -3.375 0.296875 -5.859375q0.171875 -1.4375 1.515625 -1.4375q0.671875 0 1.125 0.4375q0.453125 0.4375 0.421875 1.09375l-0.28125 5.90625zm6.875 -10.65625q-0.75 0 -1.296875 -0.53125q-0.546875 -0.53125 -0.546875 -1.28125q0 -0.75 0.546875 -1.28125q0.546875 -0.53125 1.296875 -0.53125q0.75 0 1.28125 0.53125q0.546875 0.53125 0.546875 1.28125q0 0.75 -0.546875 1.28125q-0.53125 0.53125 -1.28125 0.53125zm0.703125 12.6875q0 0.9375 0.046875 2.8125q0.0625 1.859375 0.0625 2.796875q0 0.6875 -0.421875 1.125q-0.421875 0.4375 -1.109375 0.4375q-0.671875 0 -1.109375 -0.4375q-0.421875 -0.4375 -0.421875 -1.125q0 -0.9375 -0.0625 -2.796875q-0.046875 -1.875 -0.046875 -2.8125q0 -1.46875 0.15625 -3.65625q0.15625 -2.203125 0.15625 -3.671875q0 -0.703125 0.421875 -1.140625q0.4375 -0.4375 1.109375 -0.4375q0.671875 0 1.09375 0.4375q0.4375 0.4375 0.4375 1.140625q0 1.46875 -0.15625 3.671875q-0.15625 2.1875 -0.15625 3.65625zm12.34375 8.078125q-3.203125 0 -5.34375 -1.9375q-2.25 -2.03125 -2.25 -5.359375q0 -3.171875 2.109375 -6.546875q2.34375 -3.75 5.28125 -3.75q1.53125 0 3.421875 0.71875q2.390625 0.921875 2.390625 2.25q0 0.59375 -0.390625 1.0625q-0.390625 0.453125 -0.96875 0.453125q-0.453125 0 -0.796875 -0.265625q-0.328125 -0.28125 -0.640625 -0.546875q-0.921875 -0.734375 -3.015625 -0.734375q-1.59375 0 -3.15625 2.84375q-1.421875 2.609375 -1.421875 4.515625q0 2.0625 1.40625 3.25q1.3125 1.109375 3.375 1.109375q0.9375 0 2.0 -0.5l1.8125 -0.96875q0.46875 -0.25 0.671875 -0.25q0.578125 0 1.0 0.46875q0.421875 0.453125 0.421875 1.046875q0 1.140625 -2.40625 2.203125q-2.109375 0.9375 -3.5 0.9375zm22.390625 -0.34375q-0.859375 0 -1.328125 -0.90625q-0.8125 -1.578125 -2.453125 -3.734375l-2.765625 -3.765625q-0.90625 0.71875 -2.8125 2.015625q-0.171875 2.421875 -0.171875 4.71875q0 0.703125 -0.4375 1.140625q-0.421875 0.4375 -1.09375 0.4375q-1.578125 0 -1.578125 -2.125q0 -1.296875 0.171875 -3.875q0.1875 -2.59375 0.1875 -3.890625q0 -2.375 0.0625 -5.421875q0.078125 -3.0625 0.078125 -5.40625q0 -0.703125 -0.078125 -1.65625q-0.0625 -0.953125 -0.0625 -1.65625q0 -0.703125 0.421875 -1.140625q0.4375 -0.4375 1.109375 -0.4375q0.671875 0 1.09375 0.4375q0.4375 0.4375 0.4375 1.140625q0 0.71875 0.078125 1.703125q0.078125 0.96875 0.078125 1.6875l-0.109375 5.03125q-0.078125 2.71875 -0.046875 5.4375q2.125 -1.625 4.09375 -3.5625l3.4375 -3.546875q0.515625 -0.53125 1.109375 -0.53125q0.609375 0 1.09375 0.484375q0.5 0.484375 0.5 1.125q0 0.53125 -0.453125 1.046875q-1.921875 2.25 -4.734375 4.828125l3.40625 4.640625q2.390625 3.265625 2.390625 4.25q0 0.625 -0.5 1.078125q-0.484375 0.453125 -1.125 0.453125zm28.90625 -18.171875q-1.0 0 -1.5 -1.171875q-0.4375 -1.0 -0.8125 -1.21875q-0.328125 -0.171875 -1.625 -0.171875q-2.265625 0 -5.03125 3.46875q-3.75 4.65625 -3.75 8.828125q0 2.015625 1.296875 3.46875q1.328125 1.5 3.203125 1.5q1.609375 0 3.234375 -0.828125q0.90625 -0.46875 2.78125 -1.84375q0.890625 -0.65625 1.34375 -0.65625q0.671875 0 1.125 0.515625q0.453125 0.5 0.453125 1.125q0 0.703125 -0.59375 1.234375q-4.125 3.65625 -8.34375 3.65625q-3.234375 0 -5.46875 -2.484375q-2.15625 -2.40625 -2.15625 -5.6875q0 -5.296875 4.4375 -10.859375q3.703125 -4.640625 7.46875 -4.640625q0.765625 0 1.375 0.078125q0.609375 0.0625 1.078125 0.21875q0.546875 -0.796875 1.421875 -0.796875q1.078125 0 1.359375 1.421875q0.25 1.265625 0.25 3.109375q0 0.640625 -0.34375 1.125q-0.421875 0.609375 -1.203125 0.609375zm17.28125 18.5q-1.109375 0 -1.453125 -1.1875q-0.359375 -1.28125 -0.65625 -3.640625q-0.28125 -2.265625 -0.28125 -3.71875q0 -0.40625 0.03125 -1.234375q0.046875 -0.828125 0.046875 -1.234375q0 -2.9375 -1.46875 -2.9375q-1.984375 0 -3.546875 1.796875q-0.796875 0.921875 -2.1875 3.515625q0 5.953125 -0.5 7.046875q-0.4375 0.96875 -1.359375 0.96875q-0.640625 0 -1.125 -0.4375q-0.484375 -0.4375 -0.484375 -1.0625q0 -0.21875 0.140625 -0.6875q0.125 -0.390625 0.171875 -2.28125l0.046875 -2.3125l0.046875 -11.484375q0.109375 -1.9375 0.109375 -2.609375q0 -0.796875 -0.15625 -1.5q-0.140625 -0.71875 -0.140625 -1.484375q0 -0.65625 0.453125 -1.078125q0.453125 -0.4375 1.109375 -0.4375q1.28125 0 1.5 1.375q0.25 1.515625 0.25 2.734375q0 1.640625 -0.109375 3.421875q-0.09375 1.703125 -0.078125 3.421875l0.015625 1.375q1.28125 -1.71875 2.734375 -2.5625q1.46875 -0.859375 3.109375 -0.859375q2.59375 0 3.5625 1.6875q0.6875 1.1875 0.78125 4.0l0.125 2.984375l0.3125 3.25q0.21875 1.828125 0.53125 3.21875q0.0625 0.265625 0.0625 0.453125q0 0.640625 -0.46875 1.0625q-0.46875 0.4375 -1.125 0.4375zm12.703125 -0.25q-3.53125 0 -5.71875 -1.765625q-2.390625 -1.953125 -2.390625 -5.46875q0 -4.0625 1.96875 -6.8125q2.140625 -3.0 5.71875 -3.0q2.59375 0 4.234375 0.875q2.015625 1.078125 2.015625 3.3125q0 1.5625 -1.765625 2.84375q-0.78125 0.5625 -3.3125 1.75l-5.96875 2.828125q0.875 1.296875 2.171875 1.953125q1.3125 0.65625 3.046875 0.65625q1.078125 0 2.53125 -0.40625q1.84375 -0.515625 2.375 -1.34375q0.53125 -0.84375 1.140625 -0.84375q0.546875 0 0.96875 0.421875q0.4375 0.40625 0.4375 0.953125q0 1.734375 -2.796875 2.984375q-2.390625 1.0625 -4.65625 1.0625zm-0.421875 -14.234375q-1.90625 0 -3.171875 1.484375q-1.265625 1.46875 -1.890625 4.4375l4.796875 -2.28125q2.828125 -1.375 4.03125 -2.390625q-1.34375 -1.25 -3.765625 -1.25zm17.71875 14.5q-3.203125 0 -5.34375 -1.9375q-2.25 -2.03125 -2.25 -5.359375q0 -3.171875 2.109375 -6.546875q2.34375 -3.75 5.28125 -3.75q1.53125 0 3.421875 0.71875q2.390625 0.921875 2.390625 2.25q0 0.59375 -0.390625 1.0625q-0.390625 0.453125 -0.96875 0.453125q-0.453125 0 -0.796875 -0.265625q-0.328125 -0.28125 -0.640625 -0.546875q-0.921875 -0.734375 -3.015625 -0.734375q-1.59375 0 -3.15625 2.84375q-1.421875 2.609375 -1.421875 4.515625q0 2.0625 1.40625 3.25q1.3125 1.109375 3.375 1.109375q0.9375 0 2.0 -0.5l1.8125 -0.96875q0.46875 -0.25 0.671875 -0.25q0.578125 0 1.0 0.46875q0.421875 0.453125 0.421875 1.046875q0 1.140625 -2.40625 2.203125q-2.109375 0.9375 -3.5 0.9375zm22.390625 -0.34375q-0.859375 0 -1.328125 -0.90625q-0.8125 -1.578125 -2.453125 -3.734375l-2.765625 -3.765625q-0.90625 0.71875 -2.8125 2.015625q-0.171875 2.421875 -0.171875 4.71875q0 0.703125 -0.4375 1.140625q-0.421875 0.4375 -1.09375 0.4375q-1.578125 0 -1.578125 -2.125q0 -1.296875 0.171875 -3.875q0.1875 -2.59375 0.1875 -3.890625q0 -2.375 0.0625 -5.421875q0.078125 -3.0625 0.078125 -5.40625q0 -0.703125 -0.078125 -1.65625q-0.0625 -0.953125 -0.0625 -1.65625q0 -0.703125 0.421875 -1.140625q0.4375 -0.4375 1.109375 -0.4375q0.671875 0 1.09375 0.4375q0.4375 0.4375 0.4375 1.140625q0 0.71875 0.078125 1.703125q0.078125 0.96875 0.078125 1.6875l-0.109375 5.03125q-0.078125 2.71875 -0.046875 5.4375q2.125 -1.625 4.09375 -3.5625l3.4375 -3.546875q0.515625 -0.53125 1.109375 -0.53125q0.609375 0 1.09375 0.484375q0.5 0.484375 0.5 1.125q0 0.53125 -0.453125 1.046875q-1.921875 2.25 -4.734375 4.828125l3.40625 4.640625q2.390625 3.265625 2.390625 4.25q0 0.625 -0.5 1.078125q-0.484375 0.453125 -1.125 0.453125zm12.703125 -8.0625q-2.125 0.21875 -7.5625 0.21875q-1.3125 0 -1.3125 -1.21875q0 -1.21875 1.3125 -1.21875q1.234375 0 3.703125 -0.109375q2.46875 -0.109375 3.703125 -0.109375q1.390625 0 1.390625 1.21875q0 1.078125 -1.234375 1.21875zm17.671875 -12.046875q-1.0 0 -2.515625 -0.203125l-2.515625 -0.328125q-0.359375 4.546875 -0.359375 8.6875q0 1.09375 0.0625 2.703125q0.0625 1.609375 0.0625 2.703125q0 1.46875 -0.109375 2.671875l4.921875 -0.0625q0.65625 0 1.09375 0.46875q0.453125 0.453125 0.453125 1.125q0 0.6875 -0.453125 1.15625q-0.4375 0.453125 -1.09375 0.453125q-0.875 0 -2.625 0.046875q-1.75 0.03125 -2.625 0.03125q-1.03125 0 -3.09375 0.28125q-2.046875 0.296875 -3.09375 0.296875q-0.65625 0 -1.109375 -0.46875q-0.4375 -0.453125 -0.4375 -1.125q0 -0.671875 0.4375 -1.140625q0.453125 -0.46875 1.109375 -0.46875q1.015625 0 3.359375 -0.328125q0.15625 -1.265625 0.15625 -2.890625q0 -1.078125 -0.109375 -2.625q-0.09375 -1.5625 -0.09375 -2.625q0 -3.609375 0.4375 -9.015625l-2.03125 0.0625l-2.03125 0.046875q-0.671875 0 -1.125 -0.453125q-0.453125 -0.453125 -0.453125 -1.15625q0 -1.453125 1.46875 -1.59375q1.265625 -0.125 4.734375 -0.125q3.109375 0 7.796875 0.671875q1.390625 0.203125 1.390625 1.671875q0 0.734375 -0.53125 1.171875q-0.46875 0.359375 -1.078125 0.359375zm16.68753 20.578125q-1.34375 0 -1.515625 -1.46875l-0.4375 -3.421875q-0.21875 -1.828125 -0.21875 -3.421875q0 -0.4375 0.046875 -1.484375q0.0625 -1.046875 0.0625 -1.484375q0 -3.375 -1.25 -3.375q-1.75 0 -3.34375 2.078125q-1.4375305 1.890625 -2.2500305 4.78125q-0.03125 0.609375 -0.140625 1.53125q-0.09375 0.78125 -0.09375 1.515625q0 0.46875 0.09375 1.40625q0.09375 0.9375 0.09375 1.40625q0 0.703125 -0.4375 1.140625q-0.421875 0.4375 -1.09375 0.4375q-0.6875 0 -1.109375 -0.4375q-0.421875 -0.4375 -0.421875 -1.140625q0 -0.46875 -0.109375 -1.40625q-0.09375 -0.9375 -0.09375 -1.40625q0 -1.609375 0.21875 -4.453125q0.234375 -2.859375 0.234375 -4.46875q0 -0.5 -0.0625 -1.484375q-0.046875 -0.984375 -0.046875 -1.484375q0 -0.671875 0.4375 -1.09375q0.453125 -0.4375 1.109375 -0.4375q1.4375 0 1.578125 2.03125l0.046875 1.828125q2.6250305 -3.5 5.3906555 -3.5q2.5 0 3.484375 2.203125q0.671875 1.46875 0.734375 4.34375l0 1.578125l-0.015625 1.453125q0 1.296875 0.328125 3.359375q0.34375 2.046875 0.34375 3.328125q0 0.6875 -0.453125 1.109375q-0.4375 0.4375 -1.109375 0.4375z" fill-rule="nonzero"></path></g></svg>

