<?xml version="1.0" standalone="yes"?>

<svg version="1.1" viewBox="0.0 0.0 960.0 720.0" fill="none" stroke="none" stroke-linecap="square" stroke-miterlimit="10" xmlns="http://www.w3.org/2000/svg" xmlns:xlink="http://www.w3.org/1999/xlink"><clipPath id="p.0"><path d="m0 0l960.0 0l0 720.0l-960.0 0l0 -720.0z" clip-rule="nonzero"></path></clipPath><g clip-path="url(#p.0)"><path fill="#000000" fill-opacity="0.0" d="m0 0l960.0 0l0 720.0l-960.0 0z" fill-rule="nonzero"></path><path fill="#f1c232" d="m228.41208 391.7848l0 -34.80316l334.29922 0l0 34.80316z" fill-rule="nonzero"></path><path stroke="#ffffff" stroke-width="8.0" stroke-linejoin="round" stroke-linecap="butt" d="m228.41208 391.7848l0 -34.80316l334.29922 0l0 34.80316z" fill-rule="nonzero"></path><path fill="#f1c232" d="m228.41208 356.98163l0 -34.80316l334.29922 0l0 34.80316z" fill-rule="nonzero"></path><path stroke="#ffffff" stroke-width="8.0" stroke-linejoin="round" stroke-linecap="butt" d="m228.41208 356.98163l0 -34.80316l334.29922 0l0 34.80316z" fill-rule="nonzero"></path><path fill="#ea9999" d="m611.11285 328.73505l0 56.493164c0 1.7389221 -0.6907959 3.4065857 -1.9203491 4.6362c-1.2296143 1.2295837 -2.8972778 1.9203796 -4.6362305 1.9203796l-32.781982 0c-3.0517578E-4 0 -6.1035156E-4 -2.746582E-4 -6.1035156E-4 -5.79834E-4l6.1035156E-4 -69.60574l0 0c0 -3.0517578E-4 2.4414062E-4 -5.79834E-4 5.493164E-4 -5.79834E-4l32.781433 5.79834E-4l0 0c3.6210938 0 6.5565796 2.9354858 6.5565796 6.5565796z" fill-rule="nonzero"></path><path stroke="#ffffff" stroke-width="4.0" stroke-linejoin="round" stroke-linecap="butt" d="m611.11285 328.73505l0 56.493164c0 1.7389221 -0.6907959 3.4065857 -1.9203491 4.6362c-1.2296143 1.2295837 -2.8972778 1.9203796 -4.6362305 1.9203796l-32.781982 0c-3.0517578E-4 0 -6.1035156E-4 -2.746582E-4 -6.1035156E-4 -5.79834E-4l6.1035156E-4 -69.60574l0 0c0 -3.0517578E-4 2.4414062E-4 -5.79834E-4 5.493164E-4 -5.79834E-4l32.781433 5.79834E-4l0 0c3.6210938 0 6.5565796 2.9354858 6.5565796 6.5565796z" fill-rule="nonzero"></path><path fill="#fce5cd" d="m219.3622 391.78217l-68.09448 -34.80316l68.09448 -34.80316z" fill-rule="nonzero"></path><path stroke="#ffffff" stroke-width="3.0" stroke-linejoin="round" stroke-linecap="butt" d="m219.3622 391.78217l-68.09448 -34.80316l68.09448 -34.80316z" fill-rule="nonzero"></path><path fill="#666666" d="m176.5328 369.8294l-22.67717 -12.850403l22.67717 -12.850403z" fill-rule="nonzero"></path><path stroke="#ffffff" stroke-width="3.0" stroke-linejoin="round" stroke-linecap="butt" d="m176.5328 369.8294l-22.67717 -12.850403l22.67717 -12.850403z" fill-rule="nonzero"></path></g></svg>

